<svg xmlns="http://www.w3.org/2000/svg" width="20" height="20" viewBox="0 0 20 20" version="1.1">
  <g id="Page-1" stroke="none" stroke-width="1" fill="none" fill-rule="evenodd">
    <g id="Desktop-Active-State" transform="translate(-909.000000, -113.000000)" fill="#C5C5C5">
      <g id="action-bar" transform="translate(352.000000, 100.000000)">
        <g id="clear-button" transform="translate(557.000000, 13.000000)">
          <path d="M13.09 12.21C13.34 12.46 13.34 12.85 13.09 13.09 12.85 13.34 12.45 13.34 12.21 13.09L10 10.88 7.79 13.09C7.55 13.34 7.15 13.34 6.91 13.09 6.66 12.85 6.66 12.46 6.91 12.21L9.12 10 6.91 7.79C6.66 7.54 6.66 7.15 6.91 6.91 7.15 6.66 7.55 6.66 7.79 6.91L10 9.12 12.21 6.91C12.45 6.66 12.85 6.66 13.09 6.91 13.34 7.15 13.34 7.54 13.09 7.79L10.88 10 13.09 12.21 13.09 12.21ZM17.5 0L2.5 0C1.12 0 0 1.12 0 2.5L0 17.5C0 18.88 1.12 20 2.5 20L17.5 20C18.88 20 20 18.88 20 17.5L20 2.5C20 1.12 18.88 0 17.5 0L17.5 0Z" id="Fill-40"/>
        </g>
      </g>
    </g>
  </g>
</svg>
