<svg xmlns="http://www.w3.org/2000/svg" width="20" height="20" viewBox="0 0 20 20" version="1.1">
  <g id="Page-1" stroke="none" stroke-width="1" fill="none" fill-rule="evenodd">
    <g id="Desktop-Active-State" transform="translate(-376.000000, -113.000000)" fill="#C5C5C5">
      <g id="action-bar" transform="translate(352.000000, 100.000000)">
        <path d="M30.88 17.13C30.05 17.13 29.38 17.8 29.38 18.63 29.38 19.45 30.05 20.13 30.88 20.13 31.7 20.13 32.38 19.45 32.38 18.63 32.38 17.8 31.7 17.13 30.88 17.13L30.88 17.13ZM36.5 22.13C35.67 22.13 35 22.8 35 23.63 35 24.45 35.67 25.13 36.5 25.13 37.33 25.13 38 24.45 38 23.63 38 22.8 37.33 22.13 36.5 22.13L36.5 22.13ZM40.25 19.25L33.29 19.25C33.01 20.33 32.04 21.13 30.88 21.13 29.71 21.13 28.74 20.33 28.46 19.25L27.75 19.25C27.41 19.25 27.13 18.97 27.13 18.63 27.13 18.28 27.41 18 27.75 18L28.46 18C28.74 16.92 29.71 16.13 30.88 16.13 32.04 16.13 33.01 16.92 33.29 18L40.25 18C40.6 18 40.88 18.28 40.88 18.63 40.88 18.97 40.6 19.25 40.25 19.25L40.25 19.25ZM40.25 24.25L38.91 24.25C38.63 25.33 37.66 26.13 36.5 26.13 35.34 26.13 34.37 25.33 34.09 24.25L27.75 24.25C27.41 24.25 27.13 23.97 27.13 23.63 27.13 23.28 27.41 23 27.75 23L34.09 23C34.37 21.92 35.34 21.13 36.5 21.13 37.66 21.13 38.63 21.92 38.91 23L40.25 23C40.6 23 40.88 23.28 40.88 23.63 40.88 23.97 40.6 24.25 40.25 24.25L40.25 24.25ZM40.25 29.25L33.29 29.25C33.01 30.33 32.04 31.13 30.88 31.13 29.71 31.13 28.74 30.33 28.46 29.25L27.75 29.25C27.41 29.25 27.13 28.97 27.13 28.63 27.13 28.28 27.41 28 27.75 28L28.46 28C28.74 26.92 29.71 26.13 30.88 26.13 32.04 26.13 33.01 26.92 33.29 28L40.25 28C40.6 28 40.88 28.28 40.88 28.63 40.88 28.97 40.6 29.25 40.25 29.25L40.25 29.25ZM41.5 13L26.5 13C25.12 13 24 14.12 24 15.5L24 30.5C24 31.88 25.12 33 26.5 33L41.5 33C42.88 33 44 31.88 44 30.5L44 15.5C44 14.12 42.88 13 41.5 13L41.5 13ZM30.88 27.13C30.05 27.13 29.38 27.8 29.38 28.63 29.38 29.45 30.05 30.13 30.88 30.13 31.7 30.13 32.38 29.45 32.38 28.63 32.38 27.8 31.7 27.13 30.88 27.13L30.88 27.13Z" id="Fill-170"/>
      </g>
    </g>
  </g>
</svg>
