<svg xmlns="http://www.w3.org/2000/svg" width="44" height="44" viewBox="0 0 44 44" version="1.1">
  <g id="Page-1" stroke="none" stroke-width="1" fill="none" fill-rule="evenodd">
    <g id="Mobile-Sort-State" transform="translate(-138.000000, -428.000000)" fill="#F8A46B">
      <g id="Action-Bar" transform="translate(0.000000, 428.000000)">
        <g id="add" transform="translate(138.000000, 0.000000)">
          <path d="M30.25 23.38L23.38 23.38 23.38 30.25C23.38 31.01 22.76 31.63 22 31.63 21.24 31.63 20.63 31.01 20.63 30.25L20.63 23.38 13.75 23.38C12.99 23.38 12.38 22.76 12.38 22 12.38 21.24 12.99 20.63 13.75 20.63L20.63 20.63 20.63 13.75C20.63 12.99 21.24 12.38 22 12.38 22.76 12.38 23.38 12.99 23.38 13.75L23.38 20.63 30.25 20.63C31.01 20.63 31.63 21.24 31.63 22 31.63 22.76 31.01 23.38 30.25 23.38L30.25 23.38ZM22 0C9.85 0 0 9.85 0 22 0 34.16 9.85 44 22 44 34.15 44 44 34.16 44 22 44 9.85 34.15 0 22 0L22 0Z" id="Fill-25"/>
        </g>
      </g>
    </g>
  </g>
</svg>
