<?xml version="1.0" encoding="UTF-8" standalone="no"?>
<svg width="32px" height="32px" viewBox="0 0 32 32" version="1.1" xmlns="http://www.w3.org/2000/svg" xmlns:xlink="http://www.w3.org/1999/xlink" xmlns:sketch="http://www.bohemiancoding.com/sketch/ns">
    <!-- Generator: Sketch 3.4.3 (16044) - http://www.bohemiancoding.com/sketch -->
    <title>Fill 42</title>
    <desc>Created with Sketch.</desc>
    <defs></defs>
    <g id="Page-1" stroke="none" stroke-width="1" fill="none" fill-rule="evenodd" sketch:type="MSPage">
        <g id="Mobile-Active-State:-Adding-To-do" sketch:type="MSArtboardGroup" transform="translate(-277.000000, -443.000000)" fill="#FFFFFF">
            <g id="Input" sketch:type="MSLayerGroup" transform="translate(0.000000, 435.000000)">
                <g id="form-add" transform="translate(277.000000, 8.000000)" sketch:type="MSShapeGroup">
                    <path d="M22,17 L17,17 L17,22 C17,22.55 16.552,23 16,23 C15.448,23 15,22.55 15,22 L15,17 L10,17 C9.448,17 9,16.55 9,16 C9,15.45 9.448,15 10,15 L15,15 L15,10 C15,9.45 15.448,9 16,9 C16.552,9 17,9.45 17,10 L17,15 L22,15 C22.552,15 23,15.45 23,16 C23,16.55 22.552,17 22,17 L22,17 Z M28,0 L4,0 C1.791,0 0,1.79 0,4 L0,28 C0,30.21 1.791,32 4,32 L28,32 C30.209,32 32,30.21 32,28 L32,4 C32,1.79 30.209,0 28,0 L28,0 Z" id="Fill-42"></path>
                </g>
            </g>
        </g>
    </g>
</svg>