<svg xmlns="http://www.w3.org/2000/svg" width="32" height="32" viewBox="0 0 32 32" version="1.1">
  <g id="Page-1" stroke="none" stroke-width="1" fill="none" fill-rule="evenodd">
    <g id="Mobile-Active-State:-Adding-To-do" transform="translate(-10.000000, -177.000000)" fill="#FFFFFF">
      <g id="To-Do-List" transform="translate(0.000000, 85.000000)">
        <g id="checkboxes" transform="translate(10.000000, 5.000000)">
          <g id="check-mark" transform="translate(0.000000, 87.000000)">
            <path d="M22.39 10.43C22.39 10.43 15.34 22.73 15.21 22.84 14.81 23.22 14.18 23.2 13.8 22.8L9.23 18.58C8.85 18.18 8.87 17.54 9.27 17.17 9.68 16.79 10.31 16.81 10.69 17.21L14.27 20.51 20.66 9.43C20.94 8.96 21.55 8.79 22.03 9.07 22.51 9.34 22.67 9.96 22.39 10.43L22.39 10.43ZM16 0C7.16 0 0 7.16 0 16 0 24.84 7.16 32 16 32 24.84 32 32 24.84 32 16 32 7.16 24.84 0 16 0L16 0Z" id="Fill-22"/>
          </g>
        </g>
      </g>
    </g>
  </g>
</svg>
