<svg xmlns="http://www.w3.org/2000/svg" width="13" height="15" viewBox="0 0 13 15" version="1.1">
  <g id="Page-1" stroke="none" stroke-width="1" fill="none" fill-rule="evenodd">
    <g id="Mobile-Active-State:-Adding-To-do" transform="translate(-296.000000, -185.000000)" fill-opacity="0.7" fill="#FFFFFF">
      <g id="To-Do-List" transform="translate(0.000000, 85.000000)">
        <g id="remove-buttons" transform="translate(296.000000, 12.000000)">
          <g id="garbage-copy-2" transform="translate(0.000000, 88.000000)">
            <path d="M3.5 7.03C3.5 6.77 3.72 6.56 4 6.56 4.28 6.56 4.5 6.77 4.5 7.03L4.5 12.66C4.5 12.92 4.28 13.13 4 13.13 3.72 13.13 3.5 12.92 3.5 12.66L3.5 7.03 3.5 7.03ZM6 7.03C6 6.77 6.22 6.56 6.5 6.56 6.78 6.56 7 6.77 7 7.03L7 12.66C7 12.92 6.78 13.13 6.5 13.13 6.22 13.13 6 12.92 6 12.66L6 7.03 6 7.03ZM8.5 7.03C8.5 6.77 8.72 6.56 9 6.56 9.28 6.56 9.5 6.77 9.5 7.03L9.5 12.66C9.5 12.92 9.28 13.13 9 13.13 8.72 13.13 8.5 12.92 8.5 12.66L8.5 7.03 8.5 7.03ZM1 13.13C1 14.16 1.9 15 3 15L10 15C11.1 15 12 14.16 12 13.13L12 5.63 1 5.63 1 13.13 1 13.13ZM8 1.88L5 1.88 5 1.41C5 1.15 5.22 0.94 5.5 0.94L7.5 0.94C7.78 0.94 8 1.15 8 1.41L8 1.88 8 1.88ZM12 1.88L9 1.88 9 0.94C9 0.42 8.55 0 8 0L5 0C4.45 0 4 0.42 4 0.94L4 1.88 1 1.88C0.45 1.88 0 2.3 0 2.81L0 3.75C0 4.27 0.45 4.69 1 4.69L12 4.69C12.55 4.69 13 4.27 13 3.75L13 2.81C13 2.3 12.55 1.88 12 1.88L12 1.88Z" id="Fill-198"/>
          </g>
        </g>
      </g>
    </g>
  </g>
</svg>
