<?xml version="1.0" encoding="UTF-8" standalone="no"?>
<svg width="13px" height="15px" viewBox="0 0 13 15" version="1.1" xmlns="http://www.w3.org/2000/svg" xmlns:xlink="http://www.w3.org/1999/xlink" xmlns:sketch="http://www.bohemiancoding.com/sketch/ns">
    <!-- Generator: Sketch 3.4.3 (16044) - http://www.bohemiancoding.com/sketch -->
    <title>garbage copy 2</title>
    <desc>Created with Sketch.</desc>
    <defs></defs>
    <g id="Page-1" stroke="none" stroke-width="1" fill="none" fill-rule="evenodd" sketch:type="MSPage">
        <g id="Mobile-Active-State:-Adding-To-do" sketch:type="MSArtboardGroup" transform="translate(-296.000000, -185.000000)" fill-opacity="0.699999988" fill="#FFFFFF">
            <g id="To-Do-List" sketch:type="MSLayerGroup" transform="translate(0.000000, 85.000000)">
                <g id="remove-buttons" transform="translate(296.000000, 12.000000)" sketch:type="MSShapeGroup">
                    <g id="garbage-copy-2" transform="translate(0.000000, 88.000000)">
                        <path d="M3.5,7.03125 C3.5,6.7725 3.724,6.5625 4,6.5625 C4.276,6.5625 4.5,6.7725 4.5,7.03125 L4.5,12.65625 C4.5,12.9154687 4.276,13.125 4,13.125 C3.724,13.125 3.5,12.9154687 3.5,12.65625 L3.5,7.03125 L3.5,7.03125 Z M6,7.03125 C6,6.7725 6.224,6.5625 6.5,6.5625 C6.776,6.5625 7,6.7725 7,7.03125 L7,12.65625 C7,12.9154687 6.776,13.125 6.5,13.125 C6.224,13.125 6,12.9154687 6,12.65625 L6,7.03125 L6,7.03125 Z M8.5,7.03125 C8.5,6.7725 8.724,6.5625 9,6.5625 C9.276,6.5625 9.5,6.7725 9.5,7.03125 L9.5,12.65625 C9.5,12.9154687 9.276,13.125 9,13.125 C8.724,13.125 8.5,12.9154687 8.5,12.65625 L8.5,7.03125 L8.5,7.03125 Z M1,13.125 C1,14.1604688 1.8955,15 3,15 L10,15 C11.1045,15 12,14.1604688 12,13.125 L12,5.625 L1,5.625 L1,13.125 L1,13.125 Z M8,1.875 L5,1.875 L5,1.40625 C5,1.14703125 5.224,0.9375 5.5,0.9375 L7.5,0.9375 C7.776,0.9375 8,1.14703125 8,1.40625 L8,1.875 L8,1.875 Z M12,1.875 L9,1.875 L9,0.9375 C9,0.42 8.552,0 8,0 L5,0 C4.448,0 4,0.42 4,0.9375 L4,1.875 L1,1.875 C0.448,1.875 0,2.295 0,2.8125 L0,3.75 C0,4.2675 0.4475,4.68703125 0.9995,4.6875 L12.001,4.6875 C12.5525,4.68703125 13,4.2675 13,3.75 L13,2.8125 C13,2.295 12.552,1.875 12,1.875 L12,1.875 Z" id="Fill-198"></path>
                    </g>
                </g>
            </g>
        </g>
    </g>
</svg>