<svg xmlns="http://www.w3.org/2000/svg" width="14" height="14" viewBox="0 0 14 14" version="1.1">
  <g id="Page-1" stroke="none" stroke-width="1" fill="none" fill-rule="evenodd">
    <g id="Mobile-Sort-State" transform="translate(-22.000000, -186.000000)" fill="#FFFFFF">
      <g id="reorder-icon-copy-2" transform="translate(22.000000, 186.000000)">
        <path d="M12.6 11.2L1.4 11.2C0.63 11.2 0 11.83 0 12.6 0 13.37 0.63 14 1.4 14L12.6 14C13.37 14 14 13.37 14 12.6 14 11.83 13.37 11.2 12.6 11.2L12.6 11.2ZM12.6 5.6L1.4 5.6C0.63 5.6 0 6.23 0 7 0 7.77 0.63 8.4 1.4 8.4L12.6 8.4C13.37 8.4 14 7.77 14 7 14 6.23 13.37 5.6 12.6 5.6L12.6 5.6ZM1.4 2.8L12.6 2.8C13.37 2.8 14 2.17 14 1.4 14 0.63 13.37 0 12.6 0L1.4 0C0.63 0 0 0.63 0 1.4 0 2.17 0.63 2.8 1.4 2.8L1.4 2.8Z" id="Fill-70-Copy"/>
      </g>
    </g>
  </g>
</svg>
