<?xml version="1.0" encoding="UTF-8" standalone="no"?>
<svg width="14px" height="14px" viewBox="0 0 14 14" version="1.1" xmlns="http://www.w3.org/2000/svg" xmlns:xlink="http://www.w3.org/1999/xlink" xmlns:sketch="http://www.bohemiancoding.com/sketch/ns">
    <!-- Generator: Sketch 3.4.3 (16044) - http://www.bohemiancoding.com/sketch -->
    <title>reorder icon copy 2</title>
    <desc>Created with Sketch.</desc>
    <defs></defs>
    <g id="Page-1" stroke="none" stroke-width="1" fill="none" fill-rule="evenodd" sketch:type="MSPage">
        <g id="Mobile-Sort-State" sketch:type="MSArtboardGroup" transform="translate(-22.000000, -186.000000)" fill="#FFFFFF">
            <g id="reorder-icon-copy-2" sketch:type="MSLayerGroup" transform="translate(22.000000, 186.000000)">
                <path d="M12.6,11.2 L1.4,11.2 C0.6272,11.2 0,11.8272 0,12.6 C0,13.3728 0.6272,14 1.4,14 L12.6,14 C13.3728,14 14,13.3728 14,12.6 C14,11.8272 13.3728,11.2 12.6,11.2 L12.6,11.2 Z M12.6,5.6 L1.4,5.6 C0.6272,5.6 0,6.2272 0,7 C0,7.7728 0.6272,8.4 1.4,8.4 L12.6,8.4 C13.3728,8.4 14,7.7728 14,7 C14,6.2272 13.3728,5.6 12.6,5.6 L12.6,5.6 Z M1.4,2.8 L12.6,2.8 C13.3728,2.8 14,2.1728 14,1.4 C14,0.6272 13.3728,0 12.6,0 L1.4,0 C0.6272,0 0,0.6272 0,1.4 C0,2.1728 0.6272,2.8 1.4,2.8 L1.4,2.8 Z" id="Fill-70-Copy" sketch:type="MSShapeGroup"></path>
            </g>
        </g>
    </g>
</svg>