<svg xmlns="http://www.w3.org/2000/svg" width="32" height="32" viewBox="0 0 32 32" version="1.1">
  <g id="Page-1" stroke="none" stroke-width="1" fill="none" fill-rule="evenodd">
    <g id="Mobile-Active-State:-Adding-To-do" transform="translate(-277.000000, -443.000000)" fill="#FFFFFF">
      <g id="Input" transform="translate(0.000000, 435.000000)">
        <g id="form-add" transform="translate(277.000000, 8.000000)">
          <path d="M22 17L17 17 17 22C17 22.55 16.55 23 16 23 15.45 23 15 22.55 15 22L15 17 10 17C9.45 17 9 16.55 9 16 9 15.45 9.45 15 10 15L15 15 15 10C15 9.45 15.45 9 16 9 16.55 9 17 9.45 17 10L17 15 22 15C22.55 15 23 15.45 23 16 23 16.55 22.55 17 22 17L22 17ZM28 0L4 0C1.79 0 0 1.79 0 4L0 28C0 30.21 1.79 32 4 32L28 32C30.21 32 32 30.21 32 28L32 4C32 1.79 30.21 0 28 0L28 0Z" id="Fill-42"/>
        </g>
      </g>
    </g>
  </g>
</svg>
